# xmcd
#
# Track frame offsets:
#	150
#	18226
#	36007
#	55652
#	73230
#	90092
#	111672
#	130592
#	150240
#	169534
#	183920
#	203757
#	223263
#	245231
#	261739
#	278071
#	295275
#	317254
#
# Disc length: 4448 seconds
#
# Revision: 1
# Processed by: cddbd v1.5.2PL0 Copyright (c) Steve Scherf et al.
# Submitted via: EasyCDDAExtractor 15.3.0.1
#
DISCID=01115e12
DTITLE=Pablo Alboran - Terral
DYEAR=2014
DGENRE=Latin
TTITLE0=Por Fin
TTITLE1=La Escalera
TTITLE2=Ecos
TTITLE3=Pasos De Cero
TTITLE4=Esta Permitido
TTITLE5=Recuerdame
TTITLE6=Ahogandome En Tu Adios
TTITLE7=Volveria
TTITLE8=Un Buen Amor
TTITLE9=Vivela
TTITLE10=Gracias
TTITLE11=Quimera (Featuring Ricky Martin) (Bonus Track)
TTITLE12=Recuerdame (Nueva Version) (Bonus Track)
TTITLE13=Palmeras En La Nieve (Bonus Track)
TTITLE14=Se Puede Amar (Bonus Track)
TTITLE15=Inseparables (Featuring Zaz) (Bonus Track)
TTITLE16=Ne M'oublie Pas) (Bonus Track)
TTITLE17=Vivela (En Acustico) (Bonus Track)
EXTD=
EXTT0=
EXTT1=
EXTT2=
EXTT3=
EXTT4=
EXTT5=
EXTT6=
EXTT7=
EXTT8=
EXTT9=
EXTT10=
EXTT11=
EXTT12=
EXTT13=
EXTT14=
EXTT15=
EXTT16=
EXTT17=
PLAYORDER=
